<svg xmlns="http://www.w3.org/2000/svg" xmlns:xlink="http://www.w3.org/1999/xlink" width="240" zoomAndPan="magnify" viewBox="0 0 180 179.999997" height="240" preserveAspectRatio="xMidYMid meet" version="1.0"><defs><clipPath id="8e4597afbc"><path d="M 90 0 C 40.292969 0 0 40.292969 0 90 C 0 139.707031 40.292969 180 90 180 C 139.707031 180 180 139.707031 180 90 C 180 40.292969 139.707031 0 90 0 Z M 90 0 " clip-rule="nonzero"/></clipPath><clipPath id="ef4dd4e278"><path d="M 0 0 L 180 0 L 180 180 L 0 180 Z M 0 0 " clip-rule="nonzero"/></clipPath><clipPath id="889163f137"><path d="M 90 0 C 40.292969 0 0 40.292969 0 90 C 0 139.707031 40.292969 180 90 180 C 139.707031 180 180 139.707031 180 90 C 180 40.292969 139.707031 0 90 0 Z M 90 0 " clip-rule="nonzero"/></clipPath><clipPath id="48e958dad8"><rect x="0" width="180" y="0" height="180"/></clipPath><clipPath id="0aef74d368"><path d="M 32.125 38 L 147.625 38 L 147.625 142.941406 L 32.125 142.941406 Z M 32.125 38 " clip-rule="nonzero"/></clipPath></defs><g clip-path="url(#8e4597afbc)"><g transform="matrix(1, 0, 0, 1, 0, 0)"><g clip-path="url(#48e958dad8)"><g clip-path="url(#ef4dd4e278)"><g clip-path="url(#889163f137)"><rect x="-39.6" width="259.2" fill="#ffffff" height="259.199995" y="-39.599999" fill-opacity="1"/></g></g></g></g></g><g clip-path="url(#0aef74d368)"><path fill="#000000" d="M 145.332031 99.761719 C 144.664062 99.25 144.125 98.566406 143.527344 97.96875 C 140.679688 95.109375 138.371094 91.875 136.46875 88.316406 C 134.492188 84.613281 134.476562 80.644531 134.578125 76.621094 C 134.664062 73.269531 134.433594 69.957031 133.53125 66.691406 C 132.414062 62.667969 130.058594 59.316406 127.953125 55.832031 C 127.34375 54.839844 127.269531 53.890625 127.3125 52.769531 C 127.402344 50.289062 127.558594 47.765625 127.183594 45.332031 C 126.703125 42.125 124.769531 39.75 121.488281 39.078125 C 119.015625 38.582031 116.808594 39.105469 114.890625 40.460938 C 103.542969 37.195312 81.296875 40.550781 75.804688 41.453125 C 71.894531 39.09375 67.609375 39.164062 63.453125 41.292969 C 59.371094 43.378906 57.84375 47.007812 58.019531 51.5 C 58.035156 51.863281 57.699219 52.359375 57.394531 52.578125 C 55.664062 53.789062 53.835938 54.855469 52.148438 56.121094 C 45.859375 60.832031 41.019531 66.824219 37.109375 73.558594 C 35.292969 76.695312 33.769531 80.003906 32.125 83.242188 C 32.242188 83.300781 32.34375 83.359375 32.460938 83.429688 C 33.753906 82.671875 35.046875 81.898438 36.5 81.039062 C 32.867188 91.304688 33.652344 101.25 38.78125 110.535156 C 43.34375 118.789062 49.882812 125.085938 57.875 129.914062 C 61.417969 132.058594 65.125 133.910156 69.453125 134.796875 C 65.632812 130.320312 61.941406 126.019531 58.265625 121.71875 C 59.851562 122.433594 61.214844 123.394531 62.609375 124.300781 C 71.109375 129.828125 79.609375 135.335938 88.140625 140.820312 C 89.359375 141.59375 90.710938 142.148438 92.265625 142.933594 C 91.21875 139.097656 90.289062 135.628906 89.273438 131.882812 C 92.601562 134.492188 95.695312 136.925781 98.863281 139.421875 C 99.488281 136.621094 100.011719 133.996094 100.679688 131.402344 C 102.21875 125.363281 104.441406 119.605469 108.003906 114.445312 C 108.65625 113.496094 109.179688 113.191406 110.371094 113.757812 C 114.554688 115.769531 118.914062 117.433594 123.578125 117.769531 C 132.210938 118.410156 139.183594 114.882812 144.9375 108.640625 C 145.621094 107.898438 146.144531 106.933594 146.492188 105.988281 C 147.351562 103.710938 147.625 101.496094 145.332031 99.761719 Z M 61.316406 48.074219 C 62.101562 44.734375 64.238281 43.132812 67.636719 42.941406 C 72.738281 42.664062 76.210938 45.304688 78.769531 49.328125 C 80.03125 51.308594 80.875 53.554688 81.777344 55.757812 C 79.058594 53 76.371094 50.304688 72.765625 48.800781 C 71.925781 48.453125 70.996094 48.203125 70.078125 48.074219 C 65.125 47.359375 63.847656 51.28125 64.355469 54.429688 C 64.644531 56.253906 65.269531 58.03125 65.820312 60.089844 C 62.828125 56.515625 60.167969 52.988281 61.316406 48.074219 Z M 128.867188 114.109375 C 122.839844 114.648438 117.34375 113.015625 112.042969 110.15625 C 106.898438 107.386719 101.652344 104.777344 96.304688 102.429688 C 90.582031 99.921875 84.550781 98.40625 78.246094 98.15625 C 74.117188 97.996094 70.066406 98.289062 66.070312 99.351562 C 66.011719 99.25 65.9375 99.132812 65.878906 99.03125 C 68.148438 97.167969 70.414062 95.300781 72.765625 93.375 C 66.636719 92.863281 61.375 94.949219 56.640625 98.625 C 51.960938 102.253906 48.648438 106.980469 46.003906 112.664062 C 43.835938 101.015625 46.960938 91.363281 54.722656 82.746094 C 47.820312 84.21875 42.964844 88.082031 39.027344 93.359375 C 42.269531 80.238281 49.898438 70.453125 61.375 63.574219 C 64.949219 66.472656 68.511719 68.980469 72.535156 70.746094 C 72.652344 70.613281 72.753906 70.484375 72.867188 70.367188 C 71.910156 69.507812 70.949219 68.648438 69.976562 67.785156 C 70.019531 67.667969 70.066406 67.554688 70.109375 67.449219 C 72.128906 67.742188 74.175781 67.917969 76.167969 68.355469 C 83.722656 70.046875 89.085938 74.871094 93.75 80.761719 C 96.84375 84.671875 100.082031 88.460938 103.382812 92.207031 C 106.199219 95.417969 109.207031 98.449219 112.289062 101.746094 C 110.996094 102.125 110.125 102.371094 109.0625 102.675781 C 112.144531 106.148438 115.222656 109.414062 119.496094 111.207031 C 119.367188 110.914062 119.175781 110.710938 119.003906 110.507812 C 116.023438 107.082031 116.152344 103.128906 119.570312 100.183594 C 121.296875 98.695312 123.332031 97.558594 125.335938 96.1875 C 120.804688 90.691406 118.230469 84.085938 115.632812 77.46875 C 113.917969 73.109375 112.058594 68.777344 109.964844 64.578125 C 105.75 56.121094 100.242188 48.6875 92.324219 43.292969 C 92.222656 43.21875 92.121094 43.160156 92.019531 43.101562 C 95.957031 42.695312 100.578125 42.796875 104.617188 43.027344 C 110.269531 46.660156 115.253906 51.046875 119.261719 56.574219 C 123.695312 62.699219 126.660156 69.476562 128.707031 76.738281 C 130.351562 82.527344 132.296875 88.214844 136.03125 93.070312 C 137.222656 94.628906 138.574219 96.058594 139.925781 97.632812 C 139.023438 97.765625 138.210938 97.878906 137.398438 97.984375 C 134.230469 98.40625 131.367188 99.410156 129.449219 102.195312 C 128.433594 103.683594 127.894531 105.214844 128.359375 107.109375 C 129.042969 109.9375 131.078125 111.484375 133.605469 113.058594 C 131.847656 113.453125 130.363281 113.976562 128.867188 114.109375 Z M 100.445312 76.113281 C 108.015625 75.996094 110.820312 77.730469 112.070312 83.488281 C 108.84375 79.683594 104.660156 78.082031 100.445312 76.113281 Z M 109.179688 84.160156 C 107.828125 85.398438 106.316406 85.515625 104.820312 85.050781 C 103.019531 84.496094 101.945312 83.082031 101.59375 81.257812 C 101.304688 79.757812 102.25 78.738281 103.425781 77.804688 C 103.5 83.578125 103.613281 83.695312 109.179688 84.160156 Z M 132.269531 101.773438 C 136.074219 101.597656 139.882812 101.421875 143.820312 101.25 C 141.886719 104.253906 134.722656 103.640625 132.269531 101.773438 Z M 132.269531 101.773438 " fill-opacity="1" fill-rule="nonzero"/></g></svg>